<?xml version="1.0"?>
<svg xmlns="http://www.w3.org/2000/svg" xmlns:lc="http://www.librecad.org" xmlns:xlink="http://www.w3.org/1999/xlink" width="63.86mm" height="88.8mm" viewBox="0 0 63.86 88.8">
    <g lc:layername="0" lc:is_locked="false" lc:is_construction="false" fill="none" stroke="black" stroke-width="1">
        <path d="2,88.8 2,0 63.86,0 63.86,88.8 2,88.8 2,88.8  "/>
        <path d="2,80.49 0,80.49 0,71.57 2,71.57 2,80.49 2,80.49  "/>
        <path d="5.93,88.8 15.07,88.8 15.07,83.52 5.93,83.52 5.93,88.8 5.93,88.8  "/>
        <path d="54.48,0 63.8,0 63.8,78.29 48,78.29 48,69.49 54.48,69.49 54.48,0 54.48,0  "/>
        <path id="table" type="table" d="23.94,62.46 23.94,46.46 23.94,30.46 23.94,13.26 42.16,13.26 42.16,30.46 42.16,46.46 42.16,62.46 23.94,62.46 23.94,62.46  "/>
        <path d="2,70.8 11.49,70.8 11.49,6.8 42.1,6.8 42.1,0 2,0 2,70.8 2,70.8  "/>
        <path id="route" type="navigation" d="19.94,66.46 19.94,9.26 46.16,9.26 46.16,66.46 19.94,66.46 19.94,66.46  "/>
    </g>
</svg>
